<svg viewBox="0 0 119.825 120.295" xmlns="http://www.w3.org/2000/svg"><g fill="none" fill-rule="evenodd"><path fill="#5468FF" d="M15.8-.001h88.4c8.7 0 15.8 7.065 15.8 15.8v88.405c0 8.7-7.064 15.795-15.8 15.795H15.8c-8.7 0-15.8-7.06-15.8-15.795V15.759C0 7.064 7.06-.001 15.8-.001"/><path fill="#FFF" d="M72.504 26.788v-4.114a5.209 5.209 0 00-5.21-5.206H55.15a5.209 5.209 0 00-5.21 5.206v4.224c0 .47.434.8.91.69a37.966 37.966 0 0110.57-1.49c3.465 0 6.894.47 10.21 1.38.44.11.874-.215.874-.69M39.22 32.173l-2.075-2.075a5.206 5.206 0 00-7.364 0l-2.48 2.476a5.185 5.185 0 000 7.355l2.04 2.04c.33.325.805.25 1.095-.075a39.876 39.876 0 013.975-4.66 37.68 37.68 0 014.7-4c.364-.22.4-.73.11-1.06m22.165 13.065v17.8c0 .51.55.874 1.02.62l15.825-8.19c.36-.18.47-.62.29-.98-3.28-5.755-9.37-9.685-16.405-9.94-.366 0-.73.29-.73.69m0 42.88c-13.195 0-23.916-10.706-23.916-23.88 0-13.176 10.72-23.876 23.916-23.876 13.2 0 23.914 10.7 23.914 23.876 0 13.174-10.68 23.88-23.915 23.88m0-57.8c-18.74 0-33.94 15.18-33.94 33.92 0 18.745 15.2 33.89 33.94 33.89s33.94-15.18 33.94-33.925c0-18.745-15.165-33.885-33.94-33.885"/></g></svg>
