<svg viewBox="124.209 124.008 337.578 310.992" xmlns="http://www.w3.org/2000/svg"><path d="M461.17 301.83l-18.91-58.12-37.42-115.28a6.47 6.47 0 00-12.27 0l-37.42 115.21H230.82L193.4 128.43a6.46 6.46 0 00-12.26 0l-37.36 115.21-18.91 58.19a12.88 12.88 0 004.66 14.39L293 435l163.44-118.78a12.9 12.9 0 004.73-14.39" fill="#fc6d26"/><path d="M293 434.91l62.16-191.28H230.87L293 434.91z" fill="#e24329"/><path d="M293 434.91l-62.18-191.28h-87L293 434.91z" fill="#fc6d26"/><path d="M143.75 243.69l-18.91 58.12a12.88 12.88 0 004.66 14.39L293 435 143.75 243.69z" fill="#fca326"/><path d="M143.78 243.69h87.11l-37.49-115.2a6.47 6.47 0 00-12.27 0l-37.35 115.2z" fill="#e24329"/><path d="M293 434.91l62.16-191.28h87.14L293 434.91z" fill="#fc6d26"/><path d="M442.24 243.69l18.91 58.12a12.85 12.85 0 01-4.66 14.39L293 434.91l149.2-191.22z" fill="#fca326"/><path d="M442.28 243.69h-87.1l37.42-115.2a6.46 6.46 0 0112.26 0l37.42 115.2z" fill="#e24329"/></svg>
