<svg viewBox="0 25 217.38 39.966" xmlns="http://www.w3.org/2000/svg"><path d="M77.942 25.317c4.124 0 6.027.74 7.19 2.22 1.692 2.22 2.643 6.661-.106 17.551-2.749 10.89-5.815 15.225-8.67 17.551-1.903 1.48-4.229 2.22-8.352 2.22H54.788c-4.124 0-6.132-.74-7.19-2.22-1.691-2.22-2.643-6.66.212-17.55 2.749-10.89 5.92-15.225 8.775-17.552 1.903-1.48 4.23-2.22 8.353-2.22h13.004zM58.7 55.238c.211.318.74.423 2.432.423h5.075c1.691 0 2.326-.105 2.749-.423.528-.422 1.48-1.48 3.594-10.15 2.22-8.67 1.798-9.727 1.48-10.15-.211-.317-.74-.422-2.431-.422h-4.97c-1.691 0-2.326.105-2.748.423-.53.422-1.48 1.48-3.595 10.15-2.326 8.775-1.903 9.727-1.586 10.15zm51.278-3.171c-.423-.529-.846-.74-3.383-.74h-4.97c-.528 0-1.057.422-1.162.951l-2.855 11.63c-.106.529-.634.952-1.163.952H86.189c-.528 0-.846-.423-.74-.952l9.41-37.64c.106-.528.634-.95 1.163-.95h24.106c3.912 0 6.027.528 7.19 2.008 1.269 1.797 1.692 3.7.317 9.198-1.797 7.401-4.546 9.516-9.304 10.468v.105c3.7.952 5.71 2.22 4.44 7.93-.74 3.278-1.268 6.555-1.585 8.776-.106.528-.635 1.057-1.163 1.057h-10.468c-.423 0-.845-.317-.74-.846.317-2.432.74-4.864 1.375-7.93.423-2.854.211-3.383-.212-4.017zm-.74-9.305c2.22 0 2.855-.105 3.278-.422.74-.53 1.269-1.48 1.797-3.807.529-2.326.423-3.172 0-3.7-.317-.317-.846-.423-3.066-.423h-5.498c-.528 0-1.057.423-1.163.951L103 41.917c-.106.528.212.951.74.951h5.498v-.106zM160.94 25c4.229 0 6.45.529 7.718 2.009 1.48 1.797 2.009 4.546.846 10.678-.106.53-.635.952-1.163.952h-9.833c-.529 0-.846-.423-.74-.846.423-2.432-.106-2.749-.423-3.172-.212-.317-.634-.423-2.432-.423h-5.075c-1.797 0-2.326.106-2.749.423-.634.529-1.797 2.326-3.7 10.362-1.903 8.035-1.586 9.938-1.27 10.467.212.317.741.423 2.538.423h5.393c1.586 0 2.22-.106 2.643-.423.528-.423 1.586-1.48 2.22-4.335l.106-.317h-7.613c-.528 0-.845-.423-.74-.952l1.48-6.343c.106-.53.635-.952 1.163-.952h18.292c.528 0 .845.423.74.952l-.952 3.912c-2.22 9.62-4.863 13.004-7.612 15.224-2.01 1.692-4.864 2.327-8.564 2.327h-13.217c-4.123 0-6.132-.74-7.295-2.327-1.797-2.326-2.749-6.66-.106-17.656 2.644-10.996 5.71-15.437 8.565-17.657 1.903-1.586 4.229-2.326 8.352-2.326h13.428zm41.234 39.966H170.56c-.529 0-.846-.423-.74-.952l8.881-38.062c.106-.53.634-.952 1.163-.952h36.794c.634 0 .951.634.528 1.269-1.585 2.537-7.718 7.93-14.59 7.93h-12.793c-.529 0-1.058.422-1.163.951l-.952 4.23c-.106.528.212.95.74.95h17.234c.529 0 .846.424.74.952l-1.48 6.661c-.106.529-.634.952-1.163.952h-17.234c-.529 0-1.057.423-1.163.951L184.2 54.71c-.106.528.211.951.74.951h19.349c.528 0 .845.423.74.952l-1.692 7.295c-.106.635-.634 1.058-1.163 1.058zM50.24 25.317H6.893c-.529 0-1.058.423-1.163.952l-1.058 3.806c-.105.423.106.74.423.952 1.692.528 10.785.74 9.41 5.815l-.317 1.374-3.7 13.85-.318 1.375c-1.374 5.075-6.238 5.287-8.247 5.815-.423.106-.74.529-.845.952L.02 64.014c-.105.529.212.952.74.952h17.657c.529 0 1.057-.423 1.163-.952l3.172-12.265c.106-.528.634-.951 1.163-.951h11.313c.529 0 1.057-.423 1.163-.952l1.692-6.555c.105-.529-.212-.951-.74-.951H26.03c-.53 0-.846-.423-.74-.952l1.585-5.92c.106-.53.635-.952 1.163-.952h17.023c.528 0 1.057-.423 1.163-.952l4.546-7.19c.212-.634 0-1.057-.529-1.057z" fill="#18b69c"/></svg>
