<svg viewBox="16.384 2.123 95.231 123.692" xmlns="http://www.w3.org/2000/svg"><g clip-rule="evenodd" fill-rule="evenodd" stroke-linejoin="round" stroke-miterlimit="1.414"><path d="M111.602 64.335c0-1.45-1.071-2.286-2.386-1.87L18.77 91.144c-1.317.417-2.386 1.933-2.386 3.38v29.313c0 1.45 1.069 2.288 2.386 1.87l90.445-28.678c1.315-.418 2.386-1.933 2.386-3.383z" fill="#f48e00"/><path d="M16.385 63.4c0 1.45 1.069 2.966 2.386 3.384l90.458 28.683c1.317.418 2.386-.42 2.386-1.868V64.284c0-1.447-1.069-2.963-2.386-3.38L18.771 32.22c-1.317-.418-2.386.418-2.386 1.867z" fill="#ff9800"/><path d="M111.602 4.101c0-1.45-1.071-2.288-2.386-1.87L18.77 30.91c-1.317.418-2.386 1.933-2.386 3.383v29.312c0 1.45 1.069 2.286 2.386 1.87l90.445-28.68c1.315-.418 2.386-1.933 2.386-3.38z" fill="#ff9800"/></g></svg>
